# xmcd CD database file
#
# Track frame offsets:
#	150
#	33891
#	45537
#	57946
#	69667
#	83171
#	95757
#	106203
#	118006
#	130498
#	142348
#	154582
#	168942
#	179892
#	191410
#	204684
#	217341
#	230353
#	249809
#	262121
#	276193
#	289007
#	303232
#
# Disc length: 4191 seconds
#
# Revision: 0
# Processed by: cddbd v1.5.2PL0 Copyright (c) Steve Scherf et al.
# Submitted via: CDex 1.70beta2
#
DISCID=5f105d17
DTITLE=Ray Charles - Georgia on my mind
DYEAR=1900
DGENRE=Blues
TTITLE0=Georgia on my mind
TTITLE1=C.C.Rider (see what you have done)
TTITLE2=Jumpin' in the morning
TTITLE3=Roll with me baby
TTITLE4=The midnight hour
TTITLE5=Wonder who
TTITLE6=Black Jack
TTITLE7=The sun's gonna shine again
TTITLE8=Mr. Charles Blues
TTITLE9=Can't you see darlin'
TTITLE10=I had my fun (going down slow)
TTITLE11=Losing hand
TTITLE12=Sitting on top of the world (now she's gone)
TTITLE13=You be my baby
TTITLE14=Alone in the city
TTITLE15=Feelin' sad
TTITLE16=Ray's blues
TTITLE17=Talkin' about you
TTITLE18=It should have been me
TTITLE19=Kiss me baby
TTITLE20=Don't put all your dreams in one basket
TTITLE21=Blues is my middle name
TTITLE22=She's on the ball
EXTD=
EXTT0=
EXTT1=
EXTT2=
EXTT3=
EXTT4=
EXTT5=
EXTT6=
EXTT7=
EXTT8=
EXTT9=
EXTT10=
EXTT11=
EXTT12=
EXTT13=
EXTT14=
EXTT15=
EXTT16=
EXTT17=
EXTT18=
EXTT19=
EXTT20=
EXTT21=
EXTT22=
PLAYORDER=
